<mxfile host="app.diagrams.net" agent="Mozilla/5.0 (X11; Linux x86_64) AppleWebKit/537.36 (KHTML, like Gecko) Chrome/135.0.0.0 Safari/537.36" version="26.2.8">
  <diagram name="PÃ¡gina-1" id="0FWJrO4deAHeWgODda4b">
    <mxGraphModel grid="0" page="1" gridSize="10" guides="1" tooltips="1" connect="1" arrows="1" fold="1" pageScale="1" pageWidth="827" pageHeight="1169" math="0" shadow="0" adaptiveColors="simple">
      <root>
        <mxCell id="0" />
        <mxCell id="1" parent="0" />
        <mxCell id="08LQBrcw8PR5kdEtoirq-6" value="" style="whiteSpace=wrap;html=1;aspect=fixed;hachureGap=4;fontFamily=Architects Daughter;fontSource=https%3A%2F%2Ffonts.googleapis.com%2Fcss%3Ffamily%3DArchitects%2BDaughter;fillStyle=hachure;gradientDirection=south;glass=0;rounded=1;shadow=0;strokeWidth=2;fillColor=#282A36;fontColor=#ffffff;strokeColor=#314354;" vertex="1" parent="1">
          <mxGeometry x="10" y="-39" width="786" height="786" as="geometry" />
        </mxCell>
        <mxCell id="08LQBrcw8PR5kdEtoirq-8" value="&lt;div&gt;&lt;br&gt;&lt;/div&gt;&lt;div&gt;&lt;br&gt;&lt;/div&gt;&lt;div&gt;&lt;br&gt;&lt;/div&gt;&lt;div&gt;&lt;br&gt;&lt;/div&gt;&lt;div&gt;&lt;br&gt;&lt;/div&gt;&lt;div&gt;&lt;br&gt;&lt;/div&gt;&lt;div&gt;&lt;br&gt;&lt;/div&gt;&lt;div&gt;&lt;br&gt;&lt;/div&gt;&lt;div&gt;&lt;br&gt;&lt;/div&gt;&lt;div&gt;&lt;br&gt;&lt;/div&gt;&lt;div&gt;&lt;br&gt;&lt;/div&gt;&lt;div&gt;&lt;br&gt;&lt;/div&gt;&lt;div&gt;&lt;br&gt;&lt;/div&gt;&lt;div&gt;&lt;br&gt;&lt;/div&gt;" style="whiteSpace=wrap;html=1;aspect=fixed;sketch=1;hachureGap=4;jiggle=2;curveFitting=1;fontFamily=Architects Daughter;fontSource=https%3A%2F%2Ffonts.googleapis.com%2Fcss%3Ffamily%3DArchitects%2BDaughter;fillStyle=auto;fillColor=none;strokeColor=light-dark(#8e4790, #ededed);strokeWidth=3;rounded=1;" vertex="1" parent="1">
          <mxGeometry x="340" y="160" width="430" height="430" as="geometry" />
        </mxCell>
        <mxCell id="08LQBrcw8PR5kdEtoirq-1" value="&lt;div&gt;&lt;font style=&quot;font-size: 22px;&quot;&gt;&lt;b style=&quot;&quot;&gt;&lt;br&gt;&lt;/b&gt;&lt;/font&gt;&lt;/div&gt;&lt;font style=&quot;font-size: 22px;&quot;&gt;&lt;b style=&quot;&quot;&gt;&lt;div&gt;&lt;font style=&quot;font-size: 22px;&quot;&gt;&lt;b style=&quot;&quot;&gt;&lt;br&gt;&lt;/b&gt;&lt;/font&gt;&lt;/div&gt;&lt;div&gt;&lt;font style=&quot;font-size: 22px;&quot;&gt;&lt;b style=&quot;&quot;&gt;&lt;br&gt;&lt;/b&gt;&lt;/font&gt;&lt;/div&gt;Front-end&lt;/b&gt;&lt;/font&gt;&lt;div&gt;&lt;font style=&quot;font-size: 22px;&quot;&gt;&lt;br&gt;&lt;/font&gt;&lt;/div&gt;&lt;div&gt;&lt;font style=&quot;font-size: 22px;&quot;&gt;&lt;br&gt;&lt;/font&gt;&lt;/div&gt;&lt;div&gt;&lt;font style=&quot;font-size: 22px;&quot;&gt;&lt;br&gt;&lt;/font&gt;&lt;/div&gt;&lt;div&gt;&lt;font style=&quot;font-size: 22px;&quot;&gt;&lt;br&gt;&lt;/font&gt;&lt;/div&gt;&lt;div&gt;&lt;font style=&quot;font-size: 22px;&quot;&gt;&lt;br&gt;&lt;/font&gt;&lt;/div&gt;&lt;div&gt;&lt;font style=&quot;font-size: 22px;&quot;&gt;&lt;br&gt;&lt;/font&gt;&lt;/div&gt;&lt;div&gt;&lt;font style=&quot;font-size: 22px;&quot;&gt;&lt;br&gt;&lt;/font&gt;&lt;/div&gt;&lt;div&gt;&lt;font style=&quot;font-size: 22px;&quot;&gt;&lt;br&gt;&lt;/font&gt;&lt;/div&gt;&lt;div&gt;&lt;font style=&quot;font-size: 22px;&quot;&gt;&lt;br&gt;&lt;/font&gt;&lt;/div&gt;&lt;div&gt;&lt;font style=&quot;font-size: 22px;&quot;&gt;&lt;br&gt;&lt;/font&gt;&lt;/div&gt;&lt;div&gt;&lt;br&gt;&lt;/div&gt;" style="whiteSpace=wrap;html=1;aspect=fixed;sketch=1;hachureGap=4;jiggle=2;curveFitting=1;fontFamily=Architects Daughter;fontSource=https%3A%2F%2Ffonts.googleapis.com%2Fcss%3Ffamily%3DArchitects%2BDaughter;fillStyle=auto;fillColor=none;strokeColor=light-dark(#8e4790, #ededed);strokeWidth=3;rounded=1;" vertex="1" parent="1">
          <mxGeometry x="35" y="160" width="260" height="260" as="geometry" />
        </mxCell>
        <mxCell id="08LQBrcw8PR5kdEtoirq-16" style="edgeStyle=orthogonalEdgeStyle;rounded=0;sketch=1;hachureGap=4;jiggle=2;curveFitting=1;orthogonalLoop=1;jettySize=auto;html=1;strokeColor=#7EA6E0;fontFamily=Architects Daughter;fontSource=https%3A%2F%2Ffonts.googleapis.com%2Fcss%3Ffamily%3DArchitects%2BDaughter;fontColor=#FEFAE0;fillColor=#BC6C25;jumpSize=13;strokeWidth=3;entryX=0;entryY=0.5;entryDx=0;entryDy=0;" edge="1" parent="1" source="08LQBrcw8PR5kdEtoirq-3" target="08LQBrcw8PR5kdEtoirq-39">
          <mxGeometry relative="1" as="geometry">
            <mxPoint x="340" y="260" as="targetPoint" />
            <Array as="points">
              <mxPoint x="340" y="255" />
              <mxPoint x="340" y="255" />
            </Array>
          </mxGeometry>
        </mxCell>
        <mxCell id="08LQBrcw8PR5kdEtoirq-3" value="&lt;div&gt;&lt;font style=&quot;font-size: 18px;&quot;&gt;&lt;b&gt;GET /&lt;/b&gt;&lt;/font&gt;&lt;/div&gt;&lt;font style=&quot;font-size: 18px;&quot;&gt;&lt;b&gt;&lt;u&gt;Upload page&amp;nbsp;&lt;/u&gt;&lt;/b&gt;&lt;/font&gt;" style="rounded=0;whiteSpace=wrap;html=1;hachureGap=4;strokeColor=#6c8ebf;fontFamily=Architects Daughter;fontSource=https%3A%2F%2Ffonts.googleapis.com%2Fcss%3Ffamily%3DArchitects%2BDaughter;fillColor=#000033;sketch=1;curveFitting=1;jiggle=2;" vertex="1" parent="1">
          <mxGeometry x="50" y="220" width="230" height="60" as="geometry" />
        </mxCell>
        <mxCell id="08LQBrcw8PR5kdEtoirq-7" value="&lt;font data-darkreader-inline-color=&quot;&quot; style=&quot;color: light-dark(rgb(245, 240, 240), rgb(237, 237, 237)); --darkreader-inline-color: var(--darkreader-text-ededed, #dddad5); font-size: 44px;&quot;&gt;&lt;u style=&quot;&quot;&gt;APPLICATION&lt;/u&gt;&lt;/font&gt;" style="rounded=0;whiteSpace=wrap;html=1;sketch=1;hachureGap=4;jiggle=2;curveFitting=1;strokeColor=none;fontFamily=Architects Daughter;fontSource=https%3A%2F%2Ffonts.googleapis.com%2Fcss%3Ffamily%3DArchitects%2BDaughter;fillColor=none;" vertex="1" parent="1">
          <mxGeometry x="143" y="48" width="520" height="60" as="geometry" />
        </mxCell>
        <mxCell id="08LQBrcw8PR5kdEtoirq-9" value="&lt;font&gt;&lt;b&gt;Back-end&lt;/b&gt;&lt;/font&gt;" style="rounded=0;whiteSpace=wrap;html=1;sketch=1;hachureGap=4;jiggle=2;curveFitting=1;strokeColor=none;fontFamily=Architects Daughter;fontSource=https%3A%2F%2Ffonts.googleapis.com%2Fcss%3Ffamily%3DArchitects%2BDaughter;fillColor=none;fontSize=22;" vertex="1" parent="1">
          <mxGeometry x="450" y="160" width="230" height="60" as="geometry" />
        </mxCell>
        <mxCell id="08LQBrcw8PR5kdEtoirq-30" value="&lt;b&gt;&amp;nbsp; &amp;nbsp; &amp;nbsp; &amp;nbsp; &amp;nbsp; &amp;nbsp; &amp;nbsp; &amp;nbsp; &amp;nbsp; &amp;nbsp; &amp;nbsp; &amp;nbsp;&lt;font style=&quot;font-size: 14px;&quot;&gt;Ebook images&lt;/font&gt;&lt;/b&gt;" style="edgeStyle=orthogonalEdgeStyle;rounded=0;sketch=1;hachureGap=4;jiggle=2;curveFitting=1;orthogonalLoop=1;jettySize=auto;html=1;strokeColor=#33FF99;fontFamily=Architects Daughter;fontSource=https%3A%2F%2Ffonts.googleapis.com%2Fcss%3Ffamily%3DArchitects%2BDaughter;fontColor=default;fillColor=#BC6C25;exitX=1;exitY=0.5;exitDx=0;exitDy=0;strokeWidth=3;labelBackgroundColor=none;" edge="1" parent="1" source="08LQBrcw8PR5kdEtoirq-19" target="08LQBrcw8PR5kdEtoirq-23">
          <mxGeometry x="0.7778" y="-80" relative="1" as="geometry">
            <Array as="points">
              <mxPoint x="700" y="330" />
              <mxPoint x="700" y="501" />
            </Array>
            <mxPoint as="offset" />
          </mxGeometry>
        </mxCell>
        <mxCell id="08LQBrcw8PR5kdEtoirq-38" style="edgeStyle=orthogonalEdgeStyle;rounded=0;sketch=1;hachureGap=4;jiggle=2;curveFitting=1;orthogonalLoop=1;jettySize=auto;html=1;entryX=1;entryY=0.5;entryDx=0;entryDy=0;strokeColor=#33FF99;fontFamily=Architects Daughter;fontSource=https%3A%2F%2Ffonts.googleapis.com%2Fcss%3Ffamily%3DArchitects%2BDaughter;fontColor=#FEFAE0;fillColor=#BC6C25;strokeWidth=3;" edge="1" parent="1" source="08LQBrcw8PR5kdEtoirq-19" target="08LQBrcw8PR5kdEtoirq-33">
          <mxGeometry relative="1" as="geometry">
            <Array as="points">
              <mxPoint x="400" y="340" />
              <mxPoint x="400" y="340" />
            </Array>
          </mxGeometry>
        </mxCell>
        <mxCell id="08LQBrcw8PR5kdEtoirq-19" value="&lt;span style=&quot;font-size: 18px;&quot;&gt;&lt;b&gt;EbookService&lt;/b&gt;&lt;/span&gt;&lt;div&gt;&lt;span style=&quot;font-size: 18px;&quot;&gt;&lt;b&gt;Method: extract_images&lt;/b&gt;&lt;/span&gt;&lt;/div&gt;" style="rounded=0;whiteSpace=wrap;html=1;sketch=1;hachureGap=4;jiggle=2;curveFitting=1;strokeColor=#82b366;fontFamily=Architects Daughter;fontSource=https%3A%2F%2Ffonts.googleapis.com%2Fcss%3Ffamily%3DArchitects%2BDaughter;fillColor=#003300;" vertex="1" parent="1">
          <mxGeometry x="440" y="300" width="230" height="60" as="geometry" />
        </mxCell>
        <mxCell id="08LQBrcw8PR5kdEtoirq-31" value="&amp;nbsp; &amp;nbsp; &amp;nbsp; &amp;nbsp; &amp;nbsp; &amp;nbsp; &amp;nbsp; &amp;nbsp; &amp;nbsp; &amp;nbsp; &amp;nbsp; &amp;nbsp; &amp;nbsp; &amp;nbsp; &amp;nbsp;&lt;div style=&quot;text-align: left;&quot;&gt;&lt;font data-darkreader-inline-color=&quot;&quot; style=&quot;font-size: 14px; color: rgb(255, 255, 255); --darkreader-inline-color: var(--darkreader-text-ffffff, #e8e6e3);&quot;&gt;&lt;b style=&quot;&quot;&gt;Ebook images&lt;/b&gt;&lt;/font&gt;&lt;/div&gt;&lt;div style=&quot;text-align: left;&quot;&gt;&lt;font data-darkreader-inline-color=&quot;&quot; style=&quot;font-size: 14px; color: rgb(255, 255, 255); --darkreader-inline-color: var(--darkreader-text-ffffff, #e8e6e3);&quot;&gt;&lt;b style=&quot;&quot;&gt;compressed (zip file)&lt;/b&gt;&lt;/font&gt;&lt;/div&gt;" style="edgeStyle=orthogonalEdgeStyle;rounded=0;sketch=1;hachureGap=4;jiggle=2;curveFitting=1;orthogonalLoop=1;jettySize=auto;html=1;strokeColor=#33FF99;fontFamily=Architects Daughter;fontSource=https%3A%2F%2Ffonts.googleapis.com%2Fcss%3Ffamily%3DArchitects%2BDaughter;fontColor=#F8F8F2;fillColor=#BC6C25;exitX=0.296;exitY=0;exitDx=0;exitDy=0;strokeWidth=3;exitPerimeter=0;labelBackgroundColor=none;" edge="1" parent="1" source="08LQBrcw8PR5kdEtoirq-23" target="08LQBrcw8PR5kdEtoirq-19">
          <mxGeometry x="-0.4025" y="30" relative="1" as="geometry">
            <Array as="points">
              <mxPoint x="430" y="420" />
              <mxPoint x="430" y="420" />
            </Array>
            <mxPoint as="offset" />
          </mxGeometry>
        </mxCell>
        <mxCell id="08LQBrcw8PR5kdEtoirq-23" value="&lt;span style=&quot;font-size: 18px;&quot;&gt;&lt;b&gt;Compressor helper&lt;/b&gt;&lt;/span&gt;" style="rounded=0;whiteSpace=wrap;html=1;sketch=1;hachureGap=4;jiggle=2;curveFitting=1;strokeColor=#82b366;fontFamily=Architects Daughter;fontSource=https%3A%2F%2Ffonts.googleapis.com%2Fcss%3Ffamily%3DArchitects%2BDaughter;fillColor=#003300;" vertex="1" parent="1">
          <mxGeometry x="390" y="460" width="170" height="60" as="geometry" />
        </mxCell>
        <mxCell id="08LQBrcw8PR5kdEtoirq-33" value="&lt;div&gt;&lt;b data-darkreader-inline-color=&quot;&quot; data-darkreader-inline-bgcolor=&quot;&quot; style=&quot;font-size: 18px; background-color: transparent; color: light-dark(rgb(0, 0, 0), rgb(255, 255, 255)); --darkreader-inline-bgcolor: transparent; --darkreader-inline-color: var(--darkreader-text-ffffff, #e8e6e3);&quot;&gt;Download&lt;/b&gt;&lt;/div&gt;" style="rounded=0;whiteSpace=wrap;html=1;sketch=1;hachureGap=4;jiggle=2;curveFitting=1;strokeColor=#6c8ebf;fontFamily=Architects Daughter;fontSource=https%3A%2F%2Ffonts.googleapis.com%2Fcss%3Ffamily%3DArchitects%2BDaughter;fillColor=#000033;" vertex="1" parent="1">
          <mxGeometry x="50" y="310" width="230" height="60" as="geometry" />
        </mxCell>
        <mxCell id="08LQBrcw8PR5kdEtoirq-40" value="" style="edgeStyle=orthogonalEdgeStyle;rounded=0;sketch=1;hachureGap=4;jiggle=2;curveFitting=1;orthogonalLoop=1;jettySize=auto;html=1;strokeColor=#33FF99;fontFamily=Architects Daughter;fontSource=https%3A%2F%2Ffonts.googleapis.com%2Fcss%3Ffamily%3DArchitects%2BDaughter;fontColor=#FEFAE0;fillColor=#BC6C25;strokeWidth=3;" edge="1" parent="1" source="08LQBrcw8PR5kdEtoirq-39">
          <mxGeometry relative="1" as="geometry">
            <mxPoint x="565" y="300" as="targetPoint" />
          </mxGeometry>
        </mxCell>
        <mxCell id="08LQBrcw8PR5kdEtoirq-39" value="&lt;span&gt;&lt;span&gt;POST /extract-image-from-book&lt;br&gt;&lt;/span&gt;&lt;/span&gt;" style="rounded=0;html=1;sketch=1;hachureGap=4;jiggle=2;curveFitting=1;strokeColor=#66FF66;fontFamily=Architects Daughter;fontSource=https%3A%2F%2Ffonts.googleapis.com%2Fcss%3Ffamily%3DArchitects%2BDaughter;fillColor=light-dark(#46ce8a, #003e12);glass=0;whiteSpace=wrap;spacingBottom=0;spacing=0;labelPosition=center;verticalLabelPosition=middle;align=center;verticalAlign=middle;fontSize=18;fontStyle=5;fillStyle=hachure;" vertex="1" parent="1">
          <mxGeometry x="420" y="230" width="290" height="50" as="geometry" />
        </mxCell>
      </root>
    </mxGraphModel>
  </diagram>
</mxfile>
